<svg width="146" height="146" viewBox="0 0 146 146" fill="none" xmlns="http://www.w3.org/2000/svg">
<path d="M143.513 91.8938C146.097 82.2495 146.675 72.1775 145.212 62.3008C143.748 52.4241 140.274 42.9525 135.005 34.4719L116.403 46.0303C120.092 51.9668 122.524 58.5969 123.548 65.5106C124.573 72.4243 124.168 79.4746 122.359 86.2257L143.513 91.8938Z" fill="#E12229"/>
<path d="M132.542 30.7659C126.25 21.8954 118.056 14.5428 108.558 9.24545C99.0598 3.94811 88.4981 0.839875 77.6447 0.147913L76.2513 22.0035C83.8487 22.4879 91.2418 24.6637 97.8905 28.3718C104.539 32.08 110.275 37.2268 114.68 43.4361L132.542 30.7659Z" fill="#FF5A1A"/>
<path d="M11.1601 34.2079C5.83118 42.7029 2.30968 52.2048 0.815202 62.1209C-0.679273 72.037 -0.114667 82.1547 2.47381 91.8429L23.6317 86.1901C21.8197 79.4083 21.4245 72.3259 22.4706 65.3846C23.5168 58.4434 25.9818 51.7921 29.7121 45.8455L11.1601 34.2079Z" fill="#00923D"/>
<path d="M73 0C61.2734 -1.39838e-07 49.7194 2.82502 39.3159 8.23597C28.9123 13.6469 19.9654 21.4845 13.2323 31.0855L31.1626 43.6598C35.8758 36.9392 42.1386 31.4528 49.4211 27.6652C56.7036 23.8775 64.7914 21.9 73 21.9L73 0Z" fill="#FFCF3D"/>
</svg>
