<svg width="219" height="146" viewBox="0 0 219 146" fill="none" xmlns="http://www.w3.org/2000/svg">
<path d="M173.513 91.8938C176.097 82.2495 176.675 72.1775 175.212 62.3008C173.748 52.4241 170.274 42.9525 165.005 34.4719L146.403 46.0303C150.092 51.9668 152.524 58.5969 153.548 65.5106C154.573 72.4243 154.168 79.4746 152.359 86.2257L173.513 91.8938Z" fill="#E12229"/>
<path d="M162.542 30.7659C156.25 21.8954 148.056 14.5428 138.558 9.24545C129.06 3.94811 118.498 0.839875 107.645 0.147913L106.251 22.0035C113.849 22.4879 121.242 24.6637 127.89 28.3718C134.539 32.08 140.275 37.2268 144.68 43.4361L162.542 30.7659Z" fill="#FF5A1A"/>
<path d="M41.1601 34.2079C35.8312 42.7029 32.3097 52.2048 30.8152 62.1209C29.3207 72.037 29.8853 82.1547 32.4738 91.8429L53.6317 86.1901C51.8197 79.4083 51.4245 72.3259 52.4706 65.3846C53.5168 58.4434 55.9818 51.7921 59.7121 45.8455L41.1601 34.2079Z" fill="#00923D"/>
<path d="M103 0C91.2734 -1.39838e-07 79.7194 2.82502 69.3159 8.23597C58.9123 13.6469 49.9654 21.4845 43.2323 31.0855L61.1626 43.6598C65.8758 36.9392 72.1386 31.4528 79.4211 27.6652C86.7036 23.8775 94.7914 21.9 103 21.9L103 0Z" fill="#FFCF3D"/>
<path d="M0.96875 88L0.96875 80H5.76563V80.8594H1.9375L1.9375 83.5625H5.40625L5.40625 84.4219H1.9375L1.9375 88H0.96875ZM10.7051 85.5469V82H11.627V88H10.7051V86.9844H10.6426C10.502 87.2891 10.2832 87.5482 9.98633 87.7617C9.68945 87.9727 9.31445 88.0781 8.86133 88.0781C8.48633 88.0781 8.15299 87.9961 7.86133 87.832C7.56966 87.6654 7.34049 87.4154 7.17383 87.082C7.00716 86.7461 6.92383 86.3229 6.92383 85.8125L6.92383 82H7.8457L7.8457 85.75C7.8457 86.1875 7.9681 86.5365 8.21289 86.7969C8.46029 87.0573 8.77539 87.1875 9.1582 87.1875C9.38737 87.1875 9.62044 87.1289 9.85742 87.0117C10.097 86.8945 10.2975 86.7148 10.459 86.4727C10.623 86.2305 10.7051 85.9219 10.7051 85.5469ZM14.2373 80V88H13.3154V80H14.2373ZM16.8477 80V88H15.9258V80H16.8477Z" fill="black"/>
<path d="M186.969 88L186.969 80L191.797 80L191.797 80.8594L187.937 80.8594L187.937 83.5625L191.547 83.5625L191.547 84.4219L187.937 84.4219L187.937 87.1406L191.859 87.1406L191.859 88L186.969 88ZM193.418 88L193.418 82L194.309 82L194.309 82.9375L194.387 82.9375C194.512 82.6172 194.714 82.3685 194.992 82.1914C195.271 82.0117 195.605 81.9219 195.996 81.9219C196.392 81.9219 196.721 82.0117 196.984 82.1914C197.25 82.3685 197.457 82.6172 197.605 82.9375L197.668 82.9375C197.822 82.6276 198.052 82.3815 198.359 82.1992C198.667 82.0143 199.035 81.9219 199.465 81.9219C200.001 81.9219 200.44 82.0898 200.781 82.4258C201.122 82.7591 201.293 83.2786 201.293 83.9844L201.293 88L200.371 88L200.371 83.9844C200.371 83.5417 200.25 83.2253 200.008 83.0352C199.766 82.8451 199.48 82.75 199.152 82.75C198.73 82.75 198.404 82.8776 198.172 83.1328C197.94 83.3854 197.824 83.7057 197.824 84.0938L197.824 88L196.887 88L196.887 83.8906C196.887 83.5495 196.776 83.2747 196.555 83.0664C196.333 82.8555 196.048 82.75 195.699 82.75C195.46 82.75 195.236 82.8138 195.027 82.9414C194.822 83.069 194.655 83.2461 194.527 83.4727C194.402 83.6966 194.34 83.9557 194.34 84.25L194.34 88L193.418 88ZM202.979 90.25L202.979 82L203.869 82L203.869 82.9531L203.979 82.9531C204.046 82.849 204.14 82.7161 204.26 82.5547C204.382 82.3906 204.557 82.2448 204.783 82.1172C205.012 81.987 205.322 81.9219 205.713 81.9219C206.218 81.9219 206.663 82.0482 207.049 82.3008C207.434 82.5534 207.735 82.9115 207.951 83.375C208.167 83.8385 208.275 84.3854 208.275 85.0156C208.275 85.651 208.167 86.2018 207.951 86.668C207.735 87.1315 207.436 87.4909 207.053 87.7461C206.67 87.9987 206.229 88.125 205.729 88.125C205.343 88.125 205.035 88.0612 204.803 87.9336C204.571 87.8034 204.393 87.6563 204.268 87.4922C204.143 87.3255 204.046 87.1875 203.979 87.0781L203.9 87.0781L203.9 90.25L202.979 90.25ZM203.885 85C203.885 85.4531 203.951 85.8529 204.084 86.1992C204.217 86.543 204.411 86.8125 204.666 87.0078C204.921 87.2005 205.234 87.2969 205.604 87.2969C205.989 87.2969 206.311 87.1953 206.568 86.9922C206.829 86.7865 207.024 86.5104 207.154 86.1641C207.287 85.8151 207.354 85.4271 207.354 85C207.354 84.5781 207.288 84.1979 207.158 83.8594C207.031 83.5182 206.837 83.2487 206.576 83.0508C206.318 82.8503 205.994 82.75 205.604 82.75C205.229 82.75 204.913 82.8451 204.658 83.0352C204.403 83.2227 204.21 83.4857 204.08 83.8242C203.95 84.1602 203.885 84.5521 203.885 85ZM212.291 82L212.291 82.7813L209.182 82.7813L209.182 82L212.291 82ZM210.088 80.5625L211.01 80.5625L211.01 86.2813C211.01 86.5417 211.048 86.737 211.123 86.8672C211.201 86.9948 211.3 87.0807 211.42 87.125C211.542 87.1667 211.671 87.1875 211.807 87.1875C211.908 87.1875 211.992 87.1823 212.057 87.1719C212.122 87.1589 212.174 87.1484 212.213 87.1406L212.4 87.9688C212.338 87.9922 212.251 88.0156 212.139 88.0391C212.027 88.0651 211.885 88.0781 211.713 88.0781C211.452 88.0781 211.197 88.0221 210.947 87.9102C210.7 87.7982 210.494 87.6276 210.33 87.3984C210.169 87.1693 210.088 86.8802 210.088 86.5313L210.088 80.5625ZM214.271 90.25C214.115 90.25 213.976 90.237 213.854 90.2109C213.731 90.1875 213.646 90.1641 213.6 90.1406L213.834 89.3281C214.058 89.3854 214.256 89.4063 214.428 89.3906C214.6 89.375 214.752 89.2982 214.885 89.1602C215.02 89.0247 215.144 88.8047 215.256 88.5L215.428 88.0313L213.209 82L214.209 82L215.865 86.7813L215.928 86.7813L217.584 82L218.584 82L216.037 88.875C215.923 89.1849 215.781 89.4414 215.611 89.6445C215.442 89.8503 215.245 90.0026 215.021 90.1016C214.8 90.2005 214.55 90.25 214.271 90.25Z" fill="black"/>
</svg>
